HIERARCHY
ROOT hips
{
  OFFSET 0 10.6860622 2.3727825e-15
  CHANNELS 6 Xposition Yposition Zposition Yrotation Xrotation Zrotation
  JOINT leftUpperLeg
  {
    OFFSET 0.6642549969 -0.9402397400000004 0
    CHANNELS 3 Yrotation Xrotation Zrotation
    JOINT leftLowerLeg
    {
      OFFSET 0 -3.997221335632195 0
      CHANNELS 3 Yrotation Xrotation Zrotation
      JOINT leftFoot
      {
        OFFSET -0.13777839790000004 -4.6145792000000005 -0.22186036399999998
        CHANNELS 3 Yrotation Xrotation Zrotation
        JOINT leftToes
        {
          OFFSET -0.03777410834999995 -0.9130806927000008 0.85230013
          CHANNELS 3 Yrotation Xrotation Zrotation
          End Site
          {
            OFFSET -0.03777410834999995 -0.9130806927000008 0.85230013
          }
        }
      }
    }
  }
  JOINT rightUpperLeg
  {
    OFFSET -0.6642778626 -0.9402397400000004 0
    CHANNELS 3 Yrotation Xrotation Zrotation
    JOINT rightLowerLeg
    {
      OFFSET 0 -3.997221452859387 0
      CHANNELS 3 Yrotation Xrotation Zrotation
      JOINT rightFoot
      {
        OFFSET 0.1377926176 -4.6145792000000005 -0.22185782299999995
        CHANNELS 3 Yrotation Xrotation Zrotation
        JOINT rightToes
        {
          OFFSET 0.037780746850000047 -0.9130806927000008 0.85230167
          CHANNELS 3 Yrotation Xrotation Zrotation
          End Site
          {
            OFFSET 0.037780746850000047 -0.9130806927000008 0.85230167
          }
        }
      }
    }
  }
  JOINT spine
  {
    OFFSET 0 0.13988381660000015 0
    CHANNELS 3 Yrotation Xrotation Zrotation
    JOINT chest
    {
      OFFSET 0 0.6191039003973773 0
      CHANNELS 3 Yrotation Xrotation Zrotation
      JOINT upperChest
      {
        OFFSET 0 0.9855186130586943 0
        CHANNELS 3 Yrotation Xrotation Zrotation
        JOINT leftShoulder
        {
          OFFSET 0.1807663869 1.5087829790000005 0
          CHANNELS 3 Yrotation Xrotation Zrotation
          JOINT leftUpperArm
          {
            OFFSET 0.5985063006419806 0 0
            CHANNELS 3 Yrotation Xrotation Zrotation
            JOINT leftLowerArm
            {
              OFFSET 2.2993332369501065 0 0
              CHANNELS 3 Yrotation Xrotation Zrotation
              JOINT leftHand
              {
                OFFSET 2.395047042602395 0 0
                CHANNELS 3 Yrotation Xrotation Zrotation
                JOINT leftIndexProximal
                {
                  OFFSET 0.5766295810000004 0.04556643899499946 0.17265095988184
                  CHANNELS 3 Yrotation Xrotation Zrotation
                  JOINT leftIndexIntermediate
                  {
                    OFFSET 0.2957229000000008 -0.019352197700001517 -0.007932640616999987
                    CHANNELS 3 Yrotation Xrotation Zrotation
                    JOINT leftIndexDistal
                    {
                      OFFSET 0.19008243099999922 -0.012484908149998475 -0.002786250786000012
                      CHANNELS 3 Yrotation Xrotation Zrotation
                      End Site
                      {
                        OFFSET 0.19008243099999922 -0.012484908149998475 -0.002786250786000012
                      }
                    }
                  }
                }
                JOINT leftMiddleProximal
                {
                  OFFSET 0.5834975091000001 0.0524350405149987 0.02204081888183999
                  CHANNELS 3 Yrotation Xrotation Zrotation
                  JOINT leftMiddleIntermediate
                  {
                    OFFSET 0.33880573540000003 -0.019871473270000717 -0.00000971183179999946
                    CHANNELS 3 Yrotation Xrotation Zrotation
                    JOINT leftMiddleDistal
                    {
                      OFFSET 0.20676022730000088 -0.012221336379999448 0.0001471936708000235
                      CHANNELS 3 Yrotation Xrotation Zrotation
                      End Site
                      {
                        OFFSET 0.20676022730000088 -0.012221336379999448 0.0001471936708000235
                      }
                    }
                  }
                }
                JOINT leftLittleProximal
                {
                  OFFSET 0.5344154683999995 -0.012880921405001189 -0.24414037221816004
                  CHANNELS 3 Yrotation Xrotation Zrotation
                  JOINT leftLittleIntermediate
                  {
                    OFFSET 0.21758961730000093 -0.011650919939999227 0.011893592810000034
                    CHANNELS 3 Yrotation Xrotation Zrotation
                    JOINT leftLittleDistal
                    {
                      OFFSET 0.1475273964999999 -0.008152365682999818 0.006001092492999946
                      CHANNELS 3 Yrotation Xrotation Zrotation
                      End Site
                      {
                        OFFSET 0.1475273964999999 -0.008152365682999818 0.006001092492999946
                      }
                    }
                  }
                }
                JOINT leftRingProximal
                {
                  OFFSET 0.5799399463000003 0.026911854694997794 -0.12150566991816003
                  CHANNELS 3 Yrotation Xrotation Zrotation
                  JOINT leftRingIntermediate
                  {
                    OFFSET 0.26167887460000006 -0.013480186499999602 0.010996293000000053
                    CHANNELS 3 Yrotation Xrotation Zrotation
                    JOINT leftRingDistal
                    {
                      OFFSET 0.17667108799999987 -0.008990287899999228 0.0055541023999999065
                      CHANNELS 3 Yrotation Xrotation Zrotation
                      End Site
                      {
                        OFFSET 0.17667108799999987 -0.008990287899999228 0.0055541023999999065
                      }
                    }
                  }
                }
                JOINT leftThumbProximal
                {
                  OFFSET 0.11018806699999972 -0.09448718900500053 0.17047963138184
                  CHANNELS 3 Yrotation Xrotation Zrotation
                  JOINT leftThumbIntermediate
                  {
                    OFFSET 0.31062601459999983 -0.08126270900000132 0.15443142000000007
                    CHANNELS 3 Yrotation Xrotation Zrotation
                    JOINT leftThumbDistal
                    {
                      OFFSET 0.21627175790000086 -0.08833193599999878 0.018771167799999988
                      CHANNELS 3 Yrotation Xrotation Zrotation
                      End Site
                      {
                        OFFSET 0.21627175790000086 -0.08833193599999878 0.018771167799999988
                      }
                    }
                  }
                }
              }
            }
          }
        }
        JOINT neck
        {
          OFFSET 0 1.5463305265074576 0
          CHANNELS 3 Yrotation Xrotation Zrotation
          JOINT head
          {
            OFFSET 0 0.8456443600000344 0
            CHANNELS 3 Yrotation Xrotation Zrotation
            JOINT leftEye
            {
              OFFSET 0.30408573140000006 0.5104519199999995 0.1276382305
              CHANNELS 3 Yrotation Xrotation Zrotation
              End Site
              {
                OFFSET 0.30408573140000006 0.5104519199999995 0.1276382305
              }
            }
            JOINT rightEye
            {
              OFFSET -0.30409491089999996 0.5104519199999995 0.1276379445
              CHANNELS 3 Yrotation Xrotation Zrotation
              End Site
              {
                OFFSET -0.30409491089999996 0.5104519199999995 0.1276379445
              }
            }
            JOINT jaw
            {
              OFFSET -3.155239131000001e-7 -0.11984121820000082 0.60178107
              CHANNELS 3 Yrotation Xrotation Zrotation
              End Site
              {
                OFFSET -3.155239131000001e-7 -0.11984121820000082 0.60178107
              }
            }
          }
        }
        JOINT rightShoulder
        {
          OFFSET -0.1807303465 1.5087829790000005 0
          CHANNELS 3 Yrotation Xrotation Zrotation
          JOINT rightUpperArm
          {
            OFFSET -0.5985063796536958 0 0
            CHANNELS 3 Yrotation Xrotation Zrotation
            JOINT rightLowerArm
            {
              OFFSET -2.2993322059002854 0 0
              CHANNELS 3 Yrotation Xrotation Zrotation
              JOINT rightHand
              {
                OFFSET -2.395045314457259 0 0
                CHANNELS 3 Yrotation Xrotation Zrotation
                JOINT rightIndexProximal
                {
                  OFFSET -0.5764487688300002 0.0441371204405987 0.17361932004999997
                  CHANNELS 3 Yrotation Xrotation Zrotation
                  JOINT rightIndexIntermediate
                  {
                    OFFSET -0.29573011380000047 -0.01934826376999843 -0.007698921482999974
                    CHANNELS 3 Yrotation Xrotation Zrotation
                    JOINT rightIndexDistal
                    {
                      OFFSET -0.19008373999999884 -0.012503266380000655 -0.0026365778999999897
                      CHANNELS 3 Yrotation Xrotation Zrotation
                      End Site
                      {
                        OFFSET -0.19008373999999884 -0.012503266380000655 -0.0026365778999999897
                      }
                    }
                  }
                }
                JOINT rightMiddleProximal
                {
                  OFFSET -0.5834852037300005 0.05211639405060153 0.02307162440000001
                  CHANNELS 3 Yrotation Xrotation Zrotation
                  JOINT rightMiddleIntermediate
                  {
                    OFFSET -0.33880114510000003 -0.019952774050000954 0.0002455003561999819
                    CHANNELS 3 Yrotation Xrotation Zrotation
                    JOINT rightMiddleDistal
                    {
                      OFFSET -0.20675694929999955 -0.012273788999999091 0.00030209124000002766
                      CHANNELS 3 Yrotation Xrotation Zrotation
                      End Site
                      {
                        OFFSET -0.20675694929999955 -0.012273788999999091 0.00030209124000002766
                      }
                    }
                  }
                }
                JOINT rightLittleProximal
                {
                  OFFSET -0.5346811737299992 -0.011214256288399227 -0.24363941305000003
                  CHANNELS 3 Yrotation Xrotation Zrotation
                  JOINT rightLittleIntermediate
                  {
                    OFFSET -0.21757715980000092 -0.011771559690000988 0.01201554387
                    CHANNELS 3 Yrotation Xrotation Zrotation
                    JOINT rightLittleDistal
                    {
                      OFFSET -0.1475201849000004 -0.00822055339600003 0.006082065407000015
                      CHANNELS 3 Yrotation Xrotation Zrotation
                      End Site
                      {
                        OFFSET -0.1475201849000004 -0.00822055339600003 0.006082065407000015
                      }
                    }
                  }
                }
                JOINT rightRingProximal
                {
                  OFFSET -0.5800810755299999 0.027657985680600072 -0.12066365025000003
                  CHANNELS 3 Yrotation Xrotation Zrotation
                  JOINT rightRingIntermediate
                  {
                    OFFSET -0.26166445029999974 -0.013623118409999302 0.011164098990000045
                    CHANNELS 3 Yrotation Xrotation Zrotation
                    JOINT rightRingDistal
                    {
                      OFFSET -0.17666387530000027 -0.009072900100000503 0.005668185599999959
                      CHANNELS 3 Yrotation Xrotation Zrotation
                      End Site
                      {
                        OFFSET -0.17666387530000027 -0.009072900100000503 0.005668185599999959
                      }
                    }
                  }
                }
                JOINT rightThumbProximal
                {
                  OFFSET -0.10997596379000074 -0.09577489355940072 0.16989765924999997
                  CHANNELS 3 Yrotation Xrotation Zrotation
                  JOINT rightThumbIntermediate
                  {
                    OFFSET -0.31036620999999986 -0.08229339117999834 0.15440884469999996
                    CHANNELS 3 Yrotation Xrotation Zrotation
                    JOINT rightThumbDistal
                    {
                      OFFSET -0.21631306399999906 -0.08825326400000111 0.018656797720000014
                      CHANNELS 3 Yrotation Xrotation Zrotation
                      End Site
                      {
                        OFFSET -0.21631306399999906 -0.08825326400000111 0.018656797720000014
                      }
                    }
                  }
                }
              }
            }
          }
        }
      }
    }
  }
}
MOTION
Frames: 8
Frame Time: 0.03333333333333333
0 -10.07322438200052 9.662068625349045 180 -85.99556960093058 180 108.24656167839066 -59.81155015841668 -83.4294631628878 172.29700168572919 73.79404480306061 145.11235146579088 -15.391186156884201 18.479977618127467 6.937517103097551 0 0 0 -115.79005755161792 -59.927445535400885 89.56986001498184 174.42747657303858 65.6447419217304 -162.33712159375594 15.409877603458508 18.477116830098613 -6.956512552026801 0 0 0 0 -1.5061453241462663 0 -0.452109583130294 4.142332179090508 -0.04604104511812041 0 0 0 -1.0273274171955287 -11.163605444134076 0.16328499377261257 -0.5540650207793966 -2.4380365981463235 -81.65868476120716 -44.98594276671813 0.46837332591141156 3.34373268833413 15.576972244228235 -2.2607418469614915 -18.626692492130775 0 0 0 0 0 0 0 0 0 0 0 0 0 0 0 0 0 0 0 0 0 0 0 0 0 0 0 0 0 0 0 0 0 0 0 0 0 0 0 0 0 0 0 0 0 0 16.12800316606816 0 0 -4.025625052810654 0 0 0 0 0 0 0 0 0 0 -3.604736666343748 -3.1909444257481065 -2.369051305714628 1.0881144971264434 -0.3893488855065636 86.11294167632117 67.27249706408807 -0.20820822298322544 4.71761702333425 -7.5280983263822945 -1.3201585466723338 14.630903163731439 0 0 0 0 0 0 0 0 0 0 0 0 0 0 0 0 0 0 0 0 0 0 0 0 0 0 0 0 0 0 0 0 0 0 0 0 0 0 0 0 0 0 0 0 0
0 -10.07322438200052 9.662068625349045 180 -85.99556960093058 180 107.86774637375373 -59.79015010719144 -82.96792306285958 171.59771896576663 74.03939597055415 144.28385975301128 -15.391186156884201 18.479977618127467 6.937517103097551 0 0 0 -115.78138075942881 -59.92822929801966 89.41786238604669 174.66861166268515 65.97267225483395 -162.10184234539616 15.409877603458508 18.477116830098613 -6.956512552026801 0 0 0 0 -2.0578063419549526 0 -0.45242832726256316 4.6435100175312805 -0.05005540594886525 0 0 0 -1.247462087654434 -11.343763033613731 -0.20061886372782267 -0.5374931213240293 -2.557623484654032 -81.2777434240151 -44.70003057777011 0.4468841181647599 3.484946272942388 15.576972244228235 -2.2607418469614915 -18.626692492130775 0 0 0 0 0 0 0 0 0 0 0 0 0 0 0 0 0 0 0 0 0 0 0 0 0 0 0 0 0 0 0 0 0 0 0 0 0 0 0 0 0 0 0 0 0 0 16.73014845299531 0 0 -3.549610043254489 0 0 0 0 0 0 0 0 0 0 -3.4534760690384583 -3.4148145238759677 -2.2523329732360486 1.0807017478910144 -0.5411580107704741 85.99036332928388 66.89976516785094 -0.19662142842199296 4.647381290257652 -7.5280983263822945 -1.3201585466723338 14.630903163731439 0 0 0 0 0 0 0 0 0 0 0 0 0 0 0 0 0 0 0 0 0 0 0 0 0 0 0 0 0 0 0 0 0 0 0 0 0 0 0 0 0 0 0 0 0
0 -10.07322438200052 9.662068625349045 180 -85.99556960093058 180 107.48950357496457 -59.76723767296275 -82.50694862481801 170.87488124640657 74.28185735226891 143.43187664786376 -15.391186156884201 18.479977618127467 6.937517103097551 0 0 0 -115.77273921745177 -59.928985816891675 89.26589955877637 174.91622386318056 66.30016897983884 -161.8600776866577 15.409877603458508 18.477116830098613 -6.956512552026801 0 0 0 0 -2.609416306933515 0 -0.4527831722801818 5.144651153341186 -0.05407550200781709 0 0 0 -1.466549359964402 -11.525274256774043 -0.5640199477976774 -0.5217171294959354 -2.677311479374201 -80.89680892264356 -44.41416815227439 0.42469213814869944 3.626043003643548 15.576972244228235 -2.2607418469614915 -18.626692492130775 0 0 0 0 0 0 0 0 0 0 0 0 0 0 0 0 0 0 0 0 0 0 0 0 0 0 0 0 0 0 0 0 0 0 0 0 0 0 0 0 0 0 0 0 0 0 17.332221867768535 0 0 -3.0736279796537493 0 0 0 0 0 0 0 0 0 0 -3.3026415882017024 -3.6389829991497575 -2.1361820771707434 1.0736146329201919 -0.6929805142735181 85.86779469983925 66.52703547594649 -0.18549055941226644 4.577076833740854 -7.5280983263822945 -1.3201585466723338 14.630903163731439 0 0 0 0 0 0 0 0 0 0 0 0 0 0 0 0 0 0 0 0 0 0 0 0 0 0 0 0 0 0 0 0 0 0 0 0 0 0 0 0 0 0 0 0 0
0 -10.07322438200052 9.662068625349045 180 -85.99556960093058 180 107.11190820516414 -59.7427888532324 -82.04661885918986 170.12768747174712 74.5213011449621 142.55563081865358 -15.391186156884201 18.479977618127467 6.937517103097551 0 0 0 -115.76408373636185 -59.929735537298136 89.11392256506156 175.1705787669166 66.62724308519397 -161.61157170250146 15.409877603458508 18.477116830098613 -6.956512552026801 0 0 0 0 -3.1609492572902163 0 -0.4531732343671676 5.645733404051915 -0.058100664978702844 0 0 0 -1.6845750616640665 -11.708124359677162 -0.9269076416271949 -0.5067369013088466 -2.797093440510741 -80.51591550750403 -44.128367670671494 0.40179605468598856 3.7670209822887952 15.576972244228235 -2.2607418469614915 -18.626692492130775 0 0 0 0 0 0 0 0 0 0 0 0 0 0 0 0 0 0 0 0 0 0 0 0 0 0 0 0 0 0 0 0 0 0 0 0 0 0 0 0 0 0 0 0 0 0 17.934203376542538 0 0 -2.5976940607723664 0 0 0 0 0 0 0 0 0 0 -3.1522294839917446 -3.8634490077419423 -2.0205983593285977 1.0668511514773202 -0.8448155153460991 85.74523562097016 66.15433477725165 -0.17481881631292034 4.5067052321353795 -7.5280983263822945 -1.3201585466723338 14.630903163731439 0 0 0 0 0 0 0 0 0 0 0 0 0 0 0 0 0 0 0 0 0 0 0 0 0 0 0 0 0 0 0 0 0 0 0 0 0 0 0 0 0 0 0 0 0
0 -10.07322438200052 9.662068625349045 180 -85.99556960093058 180 106.73507082706028 -59.71680024055888 -81.58703380922724 169.35532614266668 74.75759302519741 141.65429914334834 -15.391186156884201 18.479977618127467 6.937517103097551 0 0 0 -115.75539722426004 -59.93049209052048 88.96192697622568 175.4319327577698 66.95380997992993 -161.35604091557315 15.409877603458508 18.477116830098613 -6.956512552026801 0 0 0 0 -3.7123792272725984 0 -0.45359952190229685 6.146740041537983 -0.06213353437414651 0 0 0 -1.9015265361248102 -11.892292541855758 -1.2892682064868517 -0.49255313910379545 -2.9169603024255197 -80.13504467048955 -43.842660517867515 0.37819963222542974 3.9078740577098876 15.576972244228235 -2.2607418469614915 -18.626692492130775 0 0 0 0 0 0 0 0 0 0 0 0 0 0 0 0 0 0 0 0 0 0 0 0 0 0 0 0 0 0 0 0 0 0 0 0 0 0 0 0 0 0 0 0 0 0 18.536050788632178 0 0 -2.121827948949694 0 0 0 0 0 0 0 0 0 0 -3.0022381756547287 -4.088202102344037 -1.905578238013999 1.0604134798979712 -0.9966598121498876 85.6226791124966 65.78163374106741 -0.16460535750914626 4.436271205750673 -7.5280983263822945 -1.3201585466723338 14.630903163731439 0 0 0 0 0 0 0 0 0 0 0 0 0 0 0 0 0 0 0 0 0 0 0 0 0 0 0 0 0 0 0 0 0 0 0 0 0 0 0 0 0 0 0 0 0
0 -10.07322438200052 9.662068625349045 180 -85.99556960093058 180 106.3589491098843 -59.68929571536147 -81.1281512337681 168.5570093381726 74.9905523462218 140.72709441352353 -15.391186156884201 18.479977618127467 6.937517103097551 0 0 0 -115.74674314697033 -59.931214580875306 88.80995454628928 175.70058887309781 67.2798952200053 -161.09322225162327 15.409877603458508 18.477116830098613 -6.956512552026801 0 0 0 0 -4.263682251743403 0 -0.4540603227769314 6.647649054494378 -0.06617228534975901 0 0 0 -2.117390881063131 -12.077765904296996 -1.6510945269584056 -0.4791699112602437 -3.0369021429932466 -79.75418856618909 -43.55702756426643 0.35390364639648925 4.048597152398233 15.576972244228235 -2.2607418469614915 -18.626692492130775 0 0 0 0 0 0 0 0 0 0 0 0 0 0 0 0 0 0 0 0 0 0 0 0 0 0 0 0 0 0 0 0 0 0 0 0 0 0 0 0 0 0 0 0 0 0 19.137722826420802 0 0 -1.6460429934214273 0 0 0 0 0 0 0 0 0 0 -2.852668198912553 -4.313240840525083 -1.7911258170474138 1.0542994533108951 -1.1485139920779919 85.50015464423987 65.4089775354688 -0.1548513825730608 4.365782993646755 -7.5280983263822945 -1.3201585466723338 14.630903163731439 0 0 0 0 0 0 0 0 0 0 0 0 0 0 0 0 0 0 0 0 0 0 0 0 0 0 0 0 0 0 0 0 0 0 0 0 0 0 0 0 0 0 0 0 0
0 -10.07322438200052 9.662068625349045 180 -85.99556960093058 180 105.98356712908216 -59.66029252468113 -80.67001313205022 167.73191210574194 75.22004261310153 139.773185397166 -15.391186156884201 18.479977618127467 6.937517103097551 0 0 0 -115.7380889134984 -59.93192345463057 88.65798707738861 175.97683784777107 67.60545384353652 -160.82278767775952 15.409877603458508 18.477116830098613 -6.956512552026801 0 0 0 0 -4.814833560530811 0 -0.4545586398450331 7.148445151298278 -0.0702198657842329 0 0 0 -2.3321574476790876 -12.264526369698414 -2.0123767823189374 -0.4665843639104558 -3.1569154508194477 -79.37339188150399 -43.2714760062448 0.32890791174462997 4.189183318233817 15.576972244228235 -2.2607418469614915 -18.626692492130775 0 0 0 0 0 0 0 0 0 0 0 0 0 0 0 0 0 0 0 0 0 0 0 0 0 0 0 0 0 0 0 0 0 0 0 0 0 0 0 0 0 0 0 0 0 0 19.73920811534173 0 0 -1.1703559662949092 0 0 0 0 0 0 0 0 0 0 -2.7035154784481334 -4.538557808773387 -1.6772358016899196 1.048511338783933 -1.3003766681391606 85.37764801236997 65.03633958533666 -0.14555802448862296 4.295240052116374 -7.5280983263822945 -1.3201585466723338 14.630903163731439 0 0 0 0 0 0 0 0 0 0 0 0 0 0 0 0 0 0 0 0 0 0 0 0 0 0 0 0 0 0 0 0 0 0 0 0 0 0 0 0 0 0 0 0 0
0 -10.07322438200052 9.662068625349045 180 -85.99556960093058 180 105.60908704630113 -59.62976077295422 -80.21276593214385 166.87918797156823 75.44590728753185 138.7917449011787 -15.391186156884201 18.479977618127467 6.937517103097551 0 0 0 -115.72937142422877 -59.93265279247842 88.50596910024439 176.26100247711472 67.93048360749191 -160.54443889117292 15.409877603458508 18.477116830098613 -6.956512552026801 0 0 0 0 -5.365803260534137 0 -0.4550916897548866 7.649105995487342 -0.0742742991753652 0 0 0 -2.5458097217667435 -12.452555034898722 -2.3731045196191625 -0.45479902645161435 -3.276987307893479 -78.99263899787417 -42.98603506939798 0.30321523044812815 4.329627857281131 15.576972244228235 -2.2607418469614915 -18.626692492130775 0 0 0 0 0 0 0 0 0 0 0 0 0 0 0 0 0 0 0 0 0 0 0 0 0 0 0 0 0 0 0 0 0 0 0 0 0 0 0 0 0 0 0 0 0 0 20.340451040034203 0 0 -0.6947849904785058 0 0 0 0 0 0 0 0 0 0 -2.5547784983923 -4.764147323322981 -1.563910665081489 1.0430472548368896 -1.4522438912049263 85.25514303268623 64.66375133173709 -0.13672449534802644 4.224649075151887 -7.5280983263822945 -1.3201585466723338 14.630903163731439 0 0 0 0 0 0 0 0 0 0 0 0 0 0 0 0 0 0 0 0 0 0 0 0 0 0 0 0 0 0 0 0 0 0 0 0 0 0 0 0 0 0 0 0 0
